<svg width="50" height="50" viewBox="0 0 50 50" fill="none" xmlns="http://www.w3.org/2000/svg">
<path d="M49.4 1H1V49.5H49.4V1Z" stroke="#0B7EAF"/>
<path d="M10.8014 22.2651C9.97634 22.0171 9.28328 22.0832 8.70572 22.4801C8.4912 22.5793 8.37568 22.6455 8.39218 22.662C8.39218 22.7447 8.45821 22.7447 8.62323 22.6785C9.08528 22.6289 9.48131 22.91 9.79485 23.5053C10.1084 24.1006 10.5869 24.4148 11.2305 24.4479C11.3295 24.4148 11.3955 24.4148 11.412 24.4809L11.4285 24.5305C11.9401 25.1424 12.3691 25.5889 12.6662 25.87C13.5903 26.9118 14.3494 28.1685 14.9434 29.6402C15.1414 30.0371 15.3559 30.5497 15.5375 31.1946C15.7685 31.9222 15.95 32.4348 16.0655 32.7159C16.1315 32.8812 16.1976 32.9639 16.2801 32.9639C16.3461 33.0135 16.3296 32.9639 16.2636 32.7985C16.0655 31.8725 15.6695 30.7315 15.1085 29.3921C14.3494 27.7551 13.5573 26.5149 12.7487 25.655C12.2866 25.3574 11.9566 24.9936 11.775 24.5471C12.0721 24.6132 12.3526 24.7455 12.6332 24.977C13.1777 25.4566 13.5077 25.9361 13.6398 26.4157C13.7058 26.6472 13.7553 26.8125 13.7883 26.9117C13.8213 26.9779 13.8708 27.044 13.9533 27.0936C14.0358 27.1598 14.0853 27.2259 14.1183 27.2755C14.1183 27.0109 13.9203 26.4157 13.5408 25.4897C13.3592 24.514 12.6992 23.6211 11.544 22.7777C11.4945 22.7612 11.412 22.7116 11.313 22.6289C11.1975 22.5462 11.1315 22.4966 11.082 22.4801" fill="#0B7EAF"/>
<path d="M14.5476 27.6559C14.5806 27.5567 14.5971 27.4244 14.5971 27.2425C14.6962 27.0441 14.9272 26.7795 15.2737 26.4488C15.8513 26.2007 15.9998 25.7543 15.7193 25.0763C15.6368 24.9606 15.5542 24.8448 15.5047 24.7125C15.3892 24.4314 15.4552 24.1503 15.7193 23.8857C15.7853 23.7038 15.8348 23.5715 15.8348 23.5054C15.8018 23.5219 15.6698 23.5715 15.4552 23.6707C15.1087 23.8196 14.7291 24.2164 14.3496 24.8448C13.9535 25.4731 13.8545 26.0189 14.0031 26.4819C14.1681 26.9449 14.2341 27.3087 14.2341 27.5733L14.4156 28.0032L14.5476 27.6559Z" fill="#0B7EAF"/>
<path d="M13.8716 27.904C13.8386 27.8378 13.7726 27.7386 13.6571 27.5898C13.5416 27.4575 13.459 27.3418 13.426 27.2426C13.0795 26.7795 12.4194 26.4323 11.4458 26.1677C10.4887 26.2339 9.82864 26.3662 9.41609 26.5811L9.26758 26.6473C9.33359 26.73 9.39958 26.763 9.46559 26.7299C9.72962 26.7299 10.0267 26.8953 10.3402 27.2095C10.3897 27.226 10.4557 27.3087 10.5712 27.4741C10.6703 27.6394 10.8683 27.7717 11.1323 27.8875C11.6769 28.1024 12.2379 28.1024 12.8155 27.8544C13.2775 27.8048 13.7561 28.0032 14.2347 28.4331C14.1356 28.119 14.0036 27.9536 13.8716 27.904Z" fill="#0B7EAF"/>
<path d="M31.3803 12.4096L33.2121 9.7804H34.7138L34.8457 20.7934H33.5091C32.6675 17.42 31.4298 14.9562 29.7797 13.4018C28.1295 11.8474 26.2318 11.0702 24.0865 11.0702C22.3043 11.0702 20.8357 11.5994 19.697 12.6742C18.5584 13.749 17.9808 15.0554 17.9808 16.6098C17.9808 17.5688 18.1954 18.4287 18.6244 19.1563C19.0535 19.8838 19.7135 20.4792 20.5716 20.9256C21.4297 21.3886 23.0634 21.8682 25.4397 22.3808C28.7895 23.1084 31.1493 23.8525 32.486 24.5966C33.8391 25.3407 34.8457 26.2833 35.5058 27.4242C36.1659 28.5652 36.4959 29.8881 36.4959 31.4094C36.4959 34.1213 35.5883 36.3867 33.7566 38.1726C31.9249 39.9585 29.5651 40.8515 26.6773 40.8515C23.5749 40.8515 20.8687 39.8428 18.5749 37.8254L16.2811 40.6365H14.8125V28.9621H16.2811C16.8587 32.1866 18.1294 34.7166 20.1096 36.5852C22.0898 38.4537 24.3176 39.3798 26.8093 39.3798C28.8226 39.3798 30.4563 38.7845 31.7269 37.5939C32.9976 36.4033 33.6246 34.9647 33.6246 33.2615C33.6246 32.3024 33.3936 31.459 32.915 30.7314C32.4365 30.0039 31.6939 29.392 30.6543 28.896C29.6311 28.3999 27.5849 27.7881 24.5651 27.0936C21.2317 26.2998 18.9709 25.4234 17.7663 24.4478C16.0666 23.0588 15.225 21.091 15.225 18.561C15.225 15.9152 16.0666 13.7325 17.7498 12.0458C19.433 10.3592 21.5947 9.49927 24.2185 9.49927C25.4727 9.49927 26.6773 9.73078 27.8159 10.1772C28.9711 10.6072 30.1592 11.3513 31.3803 12.4096Z" fill="#0B7EAF"/>
</svg>
