<svg width="88" height="97" viewBox="0 0 88 97" fill="none" xmlns="http://www.w3.org/2000/svg">
<g clip-path="url(#clip0)">
<path d="M0.307617 0H87.6924V87.5654H0.307617V0Z" fill="#0B7EAF"/>
<path d="M43.8711 77.8965L53.6493 87.6949L43.8711 97.4933L34.0929 87.6949L43.8711 77.8965Z" fill="#0B7EAF"/>
<path d="M68.1998 19.8409H19.7998V68.3409H68.1998V19.8409Z" stroke="white" stroke-width="0.55"/>
<path d="M29.6012 41.1061C28.7761 40.858 28.0831 40.9242 27.5055 41.321C27.291 41.4203 27.1755 41.4864 27.192 41.503C27.192 41.5856 27.258 41.5856 27.423 41.5195C27.8851 41.4699 28.2811 41.751 28.5947 42.3463C28.9082 42.9416 29.3867 43.2558 30.0303 43.2888C30.1293 43.2558 30.1953 43.2557 30.2118 43.3219L30.2283 43.3715C30.7399 43.9833 31.1689 44.4298 31.466 44.7109C32.3901 45.7527 33.1492 47.0094 33.7432 48.4811C33.9412 48.878 34.1557 49.3906 34.3373 50.0355C34.5683 50.7631 34.7498 51.2757 34.8653 51.5568C34.9313 51.7222 34.9974 51.8048 35.0799 51.8048C35.1459 51.8544 35.1294 51.8048 35.0634 51.6395C34.8653 50.7135 34.4693 49.5725 33.9083 48.2331C33.1492 46.596 32.3571 45.3558 31.5485 44.496C31.0864 44.1983 30.7564 43.8345 30.5748 43.388C30.8719 43.4542 31.1524 43.5865 31.433 43.818C31.9775 44.2975 32.3076 44.7771 32.4396 45.2566C32.5056 45.4881 32.5551 45.6535 32.5881 45.7527C32.6211 45.8188 32.6706 45.885 32.7531 45.9346C32.8356 46.0007 32.8851 46.0669 32.9181 46.1165C32.9181 45.8519 32.7201 45.2566 32.3406 44.3306C32.159 43.355 31.499 42.462 30.3438 41.6187C30.2943 41.6021 30.2118 41.5525 30.1128 41.4699C29.9973 41.3872 29.9313 41.3376 29.8818 41.321" fill="white"/>
<path d="M33.3475 46.4969C33.3805 46.3976 33.397 46.2654 33.397 46.0835C33.496 45.885 33.727 45.6204 34.0735 45.2897C34.6511 45.0417 34.7996 44.5952 34.5191 43.9173C34.4366 43.8015 34.354 43.6857 34.3045 43.5535C34.189 43.2723 34.255 42.9912 34.5191 42.7267C34.5851 42.5448 34.6346 42.4125 34.6346 42.3463C34.6016 42.3628 34.4696 42.4125 34.255 42.5117C33.9085 42.6605 33.5289 43.0574 33.1494 43.6857C32.7533 44.3141 32.6543 44.8598 32.8029 45.3228C32.9679 45.7858 33.0339 46.1496 33.0339 46.4142L33.2154 46.8441L33.3475 46.4969Z" fill="white"/>
<path d="M32.6714 46.7448C32.6384 46.6787 32.5724 46.5794 32.4569 46.4306C32.3414 46.2983 32.2588 46.1826 32.2258 46.0834C31.8793 45.6204 31.2193 45.2731 30.2456 45.0085C29.2885 45.0747 28.6284 45.207 28.2159 45.4219L28.0674 45.4881C28.1334 45.5708 28.1994 45.6038 28.2654 45.5708C28.5294 45.5708 28.8265 45.7361 29.14 46.0503C29.1895 46.0669 29.2555 46.1495 29.371 46.3149C29.4701 46.4803 29.6681 46.6125 29.9321 46.7283C30.4767 46.9433 31.0377 46.9432 31.6153 46.6952C32.0773 46.6456 32.5559 46.844 33.0345 47.274C32.9354 46.9598 32.8034 46.7944 32.6714 46.7448Z" fill="white"/>
<path d="M50.1801 31.2506L52.0119 28.6213H53.5136L53.6456 39.6343H52.3089C51.4673 36.261 50.2297 33.7971 48.5795 32.2427C46.9293 30.6883 45.0316 29.9111 42.8863 29.9111C41.1041 29.9111 39.6355 30.4403 38.4968 31.5151C37.3582 32.59 36.7806 33.8963 36.7806 35.4507C36.7806 36.4098 36.9952 37.2696 37.4242 37.9972C37.8533 38.7248 38.5133 39.3201 39.3714 39.7666C40.2295 40.2296 41.8632 40.7091 44.2395 41.2217C47.5893 41.9493 49.9491 42.6934 51.2858 43.4375C52.6389 44.1817 53.6455 45.1242 54.3056 46.2652C54.9657 47.4062 55.2957 48.729 55.2957 50.2504C55.2957 52.9623 54.3881 55.2277 52.5564 57.0136C50.7247 58.7994 48.3649 59.6924 45.4771 59.6924C42.3748 59.6924 39.6685 58.6837 37.3747 56.6663L35.0809 59.4775H33.6123V47.8031H35.0809C35.6585 51.0276 36.9292 53.5576 38.9094 55.4261C40.8896 57.2947 43.1174 58.2207 45.6091 58.2207C47.6224 58.2207 49.2561 57.6254 50.5267 56.4348C51.7974 55.2443 52.4244 53.8056 52.4244 52.1024C52.4244 51.1433 52.1934 50.3 51.7148 49.5724C51.2363 48.8448 50.4937 48.233 49.4541 47.7369C48.4309 47.2408 46.3847 46.629 43.3649 45.9345C40.0315 45.1408 37.7707 44.2644 36.5661 43.2887C34.8664 41.8997 34.0249 39.9319 34.0249 37.4019C34.0249 34.7562 34.8664 32.5734 36.5496 30.8868C38.2328 29.2001 40.3945 28.3402 43.0183 28.3402C44.2725 28.3402 45.4771 28.5717 46.6157 29.0182C47.7709 29.4481 48.959 30.1923 50.1801 31.2506Z" fill="white"/>
</g>
<defs>
<clipPath id="clip0">
<rect width="88" height="97" fill="white"/>
</clipPath>
</defs>
</svg>
